<?xml version="1.0" encoding="UTF-8"?>
<svg xmlns="http://www.w3.org/2000/svg" viewBox="0 0 512 512">
  <defs>
    <style>
      .cls-1 {
        fill: #1f2020;
      }

      .cls-2 {
        fill: #151616;
      }

      .cls-3 {
        fill: #212223;
      }

      .cls-4 {
        fill: #f0ebe3;
      }

      .cls-5 {
        fill: #212121;
      }

      .cls-6 {
        fill: #313231;
      }

      .cls-7 {
        fill: #1e1f1f;
      }

      .cls-8 {
        stroke: #191917;
        stroke-miterlimit: 10;
      }

      .cls-8, .cls-9 {
        fill: var(--thermal-black, #1a1a1a);
      }

      .cls-10 {
        fill: #202020;
      }

      .cls-11 {
        fill: #c8372d;
      }

      .cls-12 {
        fill: #1c1d1d;
      }

      .cls-13 {
        fill: #020301;
      }

      .cls-14 {
        fill: #222;
      }

      .cls-15 {
        fill: #1b1a1a;
      }

      .cls-16 {
        fill: #313130;
      }
    </style>
  </defs>
  <path class="cls-15" d="M286.93,371.33l-13.62,2.04-14.31-9.4-11.97,6.42c-2.29,1.22-5.33-.09-7.91.21l-10.99,8.72c-6.61,5.25-10.44-1.77-16.74-2.51l-10.73,1.32-23.91-11.75-14.7,4.42-9.05,6.22c-3.57,1.11-7.64-1.5-11.41-.93-6.34,2.24-8.83,8.82-15.69,7.09l-18.13-4.56-13.55,2.25-12.12-6.37-10.36,4.69c-1.51.68-3.5.83-4.73-.35l-11.99-11.47c-7.45-2.85-18.13-.82-18.22-5.98l-1.91-116.05c11.98-.59,20.7-9.93,20.75-21.2s-9.05-20.95-21.45-21.34l-.96-56.02c-.13-7.64,7.04-11.16,13.82-11.27l417.01-6.98c5.39-.09,10.81,5.42,10.91,10.41l1.09,56.13c-11.91.8-20.63,10.42-20.57,21.6.07,11.6,9.38,20.67,21.37,21.07l1.87,112.57c.06,3.5-5.95,1.12-10.58.75-.86,5.61-5.23,5.46-8.89,7.27-7.82,3.88-15.13,15.33-19.9,13.36l-10.34-4.26-7.61,4.5c-1.87,1.11-4.01,1.73-6.17.74l-23.04-10.58-10.96,4.78-8.98-.42-10.34,7.2c-3.82,1.46-8.3-2.28-12.26-1.58-6.61,1.17-12.71,9.99-19.03,7.49-3.06-1.21-6.08-4.05-9.49-4.41-6.36.98-9.26,5.48-16.35,1.49-3.47-1.95-6.71-2.23-10.62-2.3l-7.25-3Z"/>
  <path class="cls-4" d="M204.58,139.2c.12-.84.51-.81.86-.02l257.08-4.47c3.57.06,6.53,2.51,6.59,6.1l.87,49.26c-12.64,3.41-20.83,14.81-20.46,27.26.36,12.22,9.06,22.94,21.43,25.75l1.75,102.63c-2.49-.38-4.93-1.42-6.94-.09-2.16,1.42-3.11,4.06-4.59,6.09l-5.51,1.31-15.06,12.57-9.66-3.9c-1.39-.56-3.06-.4-4.31.3l-8.89,4.95-22.65-10.47c-2.23-1.03-4.37-.69-6.5.31l-8.16,3.83-9.77-.15-10.88,7.25c-3.76-.24-7.95-3.17-11.78-1.98l-14.63,8.07-11.86-5.2-11.03,3.27-8.65-3.01-6.9-.45c-2.76-.82-5.31-3.95-8.3-3.42l-12.26,2.2-12.49-8.52c-2.01-1.37-4.3-.98-6.32.14l-10.15,5.67c-2.45,1.37-6.64-1.01-8.96.74l-13.07,9.88-11.04-4.62-10.92,1.14-24.01-11.65-17.14,4.82-8.78,5.88-11.76-.88-11.46,7.42-20.44-5.02-12.68,2.2c-5.78-1.26-9.62-8.35-16.27-5.33l-8.97,4.09-12.07-11.44c-4.52-2.44-10.31-1.38-14.95-2.87l-1.95-108.21c12.53-3.22,21.06-14.61,20.8-27.07-.27-12.6-9.33-23.39-21.8-26.14l-.85-49.13c-.06-3.19,2.07-5.73,5.23-6.3l160.26-2.78Z"/>
  <path class="cls-13" d="M205.44,139.19l-.86.02-160.65,2.23c-.23-.2-.29-.28-.38-.55l420.29-7.32c-.06.27-.14.38-.36.56l-258.05,5.06Z"/>
  <path class="cls-5" d="M270.93,340.96l-.44-11.24-3.3,11.05c-.16.55-2.2.53-2.37-.02l-3.45-11.08-.15,11.28c-.5.38-1.84.34-2-.1l-.12-15.73c0-.8,2.55-1,2.78-.3l4.21,12.73,3.57-12.81c.2-.7,2.39-.63,3-.15l.25,14.51c0,.43.26,1.19.08,1.46s-.73.63-2.05.41Z"/>
  <path class="cls-7" d="M293.92,324.24c0-.67,2.07-.51,2.02.32-.32,4.7.94,9.9-.25,14.58-1.47,2.2-7.93,2.38-9.61.28l-.85-15.21,2.18-.19.45,14.03c1.76.97,4,.88,5.99.14l.07-13.94Z"/>
  <path class="cls-5" d="M226.38,340.83c-1.97,1.8-6.05,1.14-7.95.61-1.23-.34-1.14-1.54-1.47-2.03-.5-.76.33-3.03,1.72-1.74.91.84.75,2.82,3.15,2.47,1.29-.19,3.22.06,3.35-1.94.08-1.21.49-3.76-1.61-4.01-1.69-.21-4.53.76-5.98-.9-1.2-1.38-1.43-5.71.14-7.1,2-1.77,6.18-1.28,8.18-.49,1.3.51,1.06,1.84,1.3,2.41.35.84-1.1,2.11-1.73,1.33-.74-1.85-1.06-2.73-2.88-2.65-1.57.06-3.29-.06-3.44,1.52s-.51,4.06,1.56,4.17c1.72.09,4.26-.82,5.67.67,1.33,1.41,1.77,6.04,0,7.67Z"/>
  <path class="cls-12" d="M143.9,342.68c.33.76-1.89.76-2.4-.25l-2.96-5.88-3.23,6.66c-.39.4-1.86.26-2.21-.1l4.02-8.23-3.72-7.72c.06-.48,1.37-.7,1.82-.29.34.31.74.79,1.07,1.48l2.18,4.59,3.18-6.17c.27-.53,2-.3,1.91.17-.48,2.73-3.2,5.27-3.13,7.93l3.46,7.82Z"/>
  <path class="cls-6" d="M116.29,335.95c-1.44.72-.92,4.14-.51,5.69l6.41.12c.17.58.19,1.08.05,1.73l-8.84.25-.36-16.53c3.1-.17,6.12-.7,9.54.19-1.9,2.09-4.49,1.32-7.02,1.29-.39,1.84-.35,3.64.06,5.57,2.18.08,3.95-.44,6.19.27-.93,2.34-3.22,1.25-5.52,1.41Z"/>
  <path class="cls-3" d="M246.39,339.53c1.76-.06,1.83,2.87-7.15,1.91-.34-.02-.43-1.33-.06-1.5.44-.21,1.2-.34,2.49-.28l-.07-13.02c-5.41,0-3.28-2.76,5.14-1.68.33.49-.12,1.65-.42,1.64l-2.2-.06.11,13.07,2.17-.07Z"/>
  <path class="cls-16" d="M356.48,339.44l-2.13.04-.45-15.17c-1.99.68-3.79.88-4.22-1.21l10.77-.21c.39,1.13-.13,1.63-.62,1.62l-3.3-.03-.05,14.95Z"/>
  <path class="cls-2" d="M317.31,338.42c.27.26.31,1.25.03,1.64l-8.35.14-.18-16.13c0-.38,1.34-.7,1.97-.32l.52,14.54,6.02.14Z"/>
  <path class="cls-10" d="M187.89,341c-1.38,2.36-8.1,2.29-9.75.23-.85-4.19-.98-9.61-.24-13.89,1.6-2.22,8.03-2.32,9.76-.23.82,4.15,1.43,9.41.22,13.9ZM186,328.03c-2.16-.78-4.23-.72-6.29.14l.4,11.99c1.55.8,5.15.92,5.96-.43l-.07-11.7Z"/>
  <path class="cls-10" d="M381.92,337.65c-1.44,2.25-8.13,2.3-9.71.2-1.13-3.95-.65-8.93-.57-12.96.07-3.37,9.84-3.41,10.22-.57.52,3.95.96,8.85.06,13.33ZM379.93,324.58c-1.97-.73-3.85-.53-6.1-.02l.3,12.2c1.49.76,5.29,1.05,5.83-.4l-.03-11.78Z"/>
  <path class="cls-1" d="M401.61,335.01l-1.1-2.93c-.27-.72-2.76-.76-3.21-.03-.81,1.92-.07,4.13-.27,6.43-.05.54-2.11.51-2.12-.14l-.26-16.07c2.74.14,5.92-1,8.52.26,2.97,1.47,2.5,7.67-.3,9.36l2.49,6.7c-1.06.3-2.27.19-2.61-.68l-1.14-2.9ZM402.25,324.4c-1.34-1.13-3.99-.71-5.36-.2l.04,5.73c1.91.08,3.51.2,5.63-.4.21-1.61.68-4.02-.31-5.13Z"/>
  <path class="cls-7" d="M336.9,336.38c-.4-1.48-5.28-1.34-5.64.14l-.65,2.65c-.17.71-1.04,1.17-2.45.71l4.02-16.49c1.13-.33,2-.35,3.24-.07l4.48,16.34c-1.12.41-2.07.16-2.19-.27l-.81-3.02ZM333.98,325.76l-1.97,7.97,4.17.02-2.2-7.99Z"/>
  <path class="cls-14" d="M165.2,334.82c-2.09,1.92-6.34.37-7.08,1.51-.67,1.03.04,3.67-.21,6.34-.05.59-2.07.51-2.13-.09l-.33-16.2,7.27-.12c4.16-.07,3.79,7.35,2.48,8.56ZM162.91,328.34c-1.23-.94-3.55-.31-5.13-.26l.06,6.02c1.95.12,3.67.24,5.58-.3.29-1.92.67-4.42-.51-5.45Z"/>
  <g>
    <polygon class="cls-8" points="83.03 199.43 110.07 194.85 108.67 236.42 115.75 235.34 117.15 193.77 144.33 189.43 140.48 299.08 113.59 303.55 114.83 260.81 108.04 261.66 106.44 304.89 79.31 309.6 83.03 199.43"/>
    <path class="cls-9" d="M194.75,181.82l12.44,106.72-26.45,4.31-1.56-19.69-10.34,1.92-2.54,19.94-23.19,3.52,16.94-112.02,34.72-4.7ZM175.53,226.79l-3.49,26.74,5.85-.7-2.35-26.04Z"/>
    <polygon class="cls-9" points="212.12 179.85 237.47 176.22 247.93 211.37 249.18 174.46 272.98 171.86 269.55 279.91 243.77 283.34 234.13 249.65 232.49 285.29 208.45 288.61 212.12 179.85"/>
    <path class="cls-9" d="M329.97,165.29c7.88.74,7.82,6.72,7.82,6.72,0,0-1.85,55.89-2.39,74.6-.13,4.56,0,10.03-1.17,18.2-1.11,7.79-12.36,8.51-12.36,8.51l-46.71,6,3.66-107.88s43.27-6.89,51.15-6.15ZM302.79,252.97l5.86-1.18,1.81-60.03-5.64,1.01-2.03,60.2Z"/>
    <path class="cls-9" d="M400,190.36l-26,3.55.36-10.63-5.49.77-.33,9.68-.07,2.19.49,1.05,2,1.32,23.55,9.94s4.74,2.31,4.68,6.26-.55,16.22-.55,16.22l-.79,24.46s-.51,6.71-6.27,8.04c-5.76,1.33-41.18,6.23-41.18,6.23,0,0-10.51,2.66-10.58-6.01-.08-9.21.92-27.32.92-27.32l26.21-3.42-.2,12.37,5.09-.55.21-12.46s.6-1.86-7.28-4.82c-7.88-2.96-18.39-7.89-18.39-7.89,0,0-4.92-1.24-4.77-8.86s1.44-39.5,1.44-39.5c0,0,.21-6.36,9.11-7.94,8.89-1.58,27.31-3.5,36.39-4.78,0,0,12.32-.84,12.4,5.08.09,6.65-.94,27.02-.94,27.02Z"/>
    <polygon class="cls-11" points="409.84 157.81 438.88 153.77 431.09 231.18 409.44 233.67 409.84 157.81"/>
    <polygon class="cls-11" points="407.02 241.48 405.16 264.56 432.01 261.34 432.8 238.05 407.02 241.48"/>
  </g>
</svg>